# xmcd
#
# Track frame offsets:
#	150
#	16861
#	45753
#	61581
#	79930
#	98141
#	114767
#	131012
#	147955
#	173983
#	193903
#	213887
#
# Disc length: 3119 seconds
#
# Revision: 0
# Processed by: cddbd v1.5.2PL0 Copyright (c) Steve Scherf et al.
# Submitted via: audiograbber 1.83.01
#
DISCID=950c2d0c
DTITLE=Cdpool - Street November 09 CD2
DYEAR=2009
DGENRE=R&B
TTITLE0=Esmee Denters - Admit It
TTITLE1=Mandei - Jealousy 2.0 (TreMoreFire Full Vocal Remix)
TTITLE2=Jadan Lee Ft Flo Sta - Insecure
TTITLE3=Crazy Cousinz Ft MC Versatile - Funky Anthem (Funky Allstars Remix)
TTITLE4=K Ners Ft Sway and Nicole Jackson - Back In Bizness
TTITLE5=JJC - We Are Africans (Original Mix)
TTITLE6=Demarco - She Can't Wait (Love A Come Down)
TTITLE7=Levi Roots - So Out Of My Mind (Alaye Remix)
TTITLE8=Underachiever Vs Witty Boy - Tell Me Why (UK Funky Remix)
TTITLE9=Westek Ft Meleka - In Da Club
TTITLE10=DJ Infamous Ft Young Dro, Jim Jones, Chubby Baby and Rick Ross - Feddy (
TTITLE10=Dirty Version)
TTITLE11=Educated Consumers - Instant Universe (Clean)
EXTD=
EXTT0=
EXTT1=
EXTT2=
EXTT3=
EXTT4=
EXTT5=
EXTT6=
EXTT7=
EXTT8=
EXTT9=
EXTT10=
EXTT11=
PLAYORDER=
